<svg aria-hidden="true" style="position: absolute; width: 0; height: 0; overflow: hidden;" version="1.1" xmlns="http://www.w3.org/2000/svg" xmlns:xlink="http://www.w3.org/1999/xlink">
<defs>
<symbol id="icon-arrow-down-mini" viewBox="0 0 32 32">
<path stroke-linejoin="round" stroke-linecap="round" stroke-miterlimit="4" stroke-width="2.9091" d="M9.455 13.818l7.274 6.662 7.272-6.662"></path>
</symbol>
<symbol id="icon-search" viewBox="0 0 32 32">
<path stroke-linejoin="miter" stroke-linecap="round" stroke-miterlimit="4" stroke-width="0.96" d="M24.64 24.64l-4.236-4.229M20.404 20.411c1.385-1.383 2.242-3.296 2.242-5.408 0-4.221-3.422-7.643-7.643-7.643s-7.643 3.422-7.643 7.643c0 4.221 3.422 7.643 7.643 7.643 2.109 0 4.018-0.854 5.401-2.235z"></path>
</symbol>
<symbol id="icon-close" viewBox="0 0 32 32">
<path d="M24.4 7.613c-0.123-0.124-0.27-0.222-0.431-0.289s-0.334-0.101-0.509-0.101c-0.175 0-0.348 0.034-0.509 0.101s-0.308 0.165-0.431 0.289l-6.52 6.507-6.52-6.52c-0.123-0.123-0.27-0.221-0.431-0.288s-0.334-0.101-0.509-0.101c-0.175 0-0.347 0.034-0.509 0.101s-0.308 0.165-0.431 0.288c-0.123 0.123-0.221 0.27-0.288 0.431s-0.101 0.334-0.101 0.509c0 0.175 0.034 0.347 0.101 0.509s0.165 0.308 0.288 0.431l6.52 6.52-6.52 6.52c-0.123 0.123-0.221 0.27-0.288 0.431s-0.101 0.334-0.101 0.509c0 0.174 0.034 0.347 0.101 0.509s0.165 0.308 0.288 0.431c0.123 0.123 0.27 0.221 0.431 0.288s0.334 0.101 0.509 0.101c0.175 0 0.347-0.034 0.509-0.101s0.308-0.165 0.431-0.288l6.52-6.52 6.52 6.52c0.123 0.123 0.27 0.221 0.431 0.288s0.334 0.101 0.509 0.101c0.175 0 0.347-0.034 0.509-0.101s0.308-0.165 0.431-0.288c0.123-0.123 0.221-0.27 0.288-0.431s0.101-0.334 0.101-0.509c0-0.175-0.034-0.348-0.101-0.509s-0.165-0.308-0.288-0.431l-6.52-6.52 6.52-6.52c0.507-0.507 0.507-1.36 0-1.867z"></path>
</symbol>
<symbol id="icon-arrow-oval-left" viewBox="0 0 32 32">
<path fill="" style="" d="M16 29.333c-7.364 0-13.333-5.97-13.333-13.333s5.97-13.333 13.333-13.333c7.364 0 13.333 5.97 13.333 13.333s-5.97 13.333-13.333 13.333zM15.374 11.293c-0.391-0.391-1.024-0.391-1.414 0l-4 4c-0.391 0.391-0.391 1.024 0 1.414l4 4c0.391 0.391 1.024 0.391 1.414 0s0.391-1.024 0-1.414l-2.293-2.293h8.252c0.552 0 1-0.448 1-1s-0.448-1-1-1h-8.252l2.293-2.293c0.391-0.391 0.391-1.024 0-1.414z"></path>
</symbol>
<symbol id="icon-send-2" viewBox="0 0 32 32">
<path fill="#084184" style="fill: var(--color1, #084184)" d="M16.738 22.008c-0.189 0.207-0.457 0.325-0.738 0.325s-0.549-0.118-0.738-0.325l-5.333-5.833c-0.373-0.408-0.344-1.040 0.063-1.413s1.040-0.344 1.413 0.063l3.595 3.932v-14.758c0-0.552 0.448-1 1-1s1 0.448 1 1v14.758l3.595-3.932c0.373-0.408 1.005-0.436 1.413-0.063s0.436 1.005 0.063 1.413l-5.333 5.833z"></path>
<path fill="#084184" style="fill: var(--color1, #084184)" d="M5 20c0-0.552-0.448-1-1-1s-1 0.448-1 1v0.073c-0 1.823-0 3.293 0.155 4.449 0.161 1.2 0.507 2.211 1.309 3.013s1.813 1.148 3.013 1.309c1.156 0.155 2.626 0.155 4.449 0.155h8.146c1.823 0 3.293 0 4.449-0.155 1.2-0.161 2.211-0.507 3.013-1.309s1.148-1.813 1.309-3.013c0.155-1.156 0.155-2.626 0.155-4.449v-0.073c0-0.552-0.448-1-1-1s-1 0.448-1 1c0 1.914-0.002 3.249-0.137 4.256-0.132 0.978-0.372 1.496-0.741 1.865s-0.887 0.61-1.865 0.741c-1.007 0.135-2.342 0.137-4.256 0.137h-8c-1.914 0-3.249-0.002-4.256-0.137-0.978-0.132-1.496-0.372-1.865-0.741s-0.61-0.887-0.741-1.865c-0.135-1.007-0.138-2.342-0.138-4.256z"></path>
</symbol>
<symbol id="icon-lamp" viewBox="0 0 32 32">
<path fill="#efab44" style="fill: var(--color2, #efab44)" d="M14.823 27.899c0.055 0.023 0.113 0.040 0.177 0.054v1.38c0 0.552 0.448 1 1 1s1-0.448 1-1v-1.38c0.064-0.014 0.122-0.031 0.177-0.054 0.327-0.135 0.586-0.395 0.722-0.722 0.102-0.245 0.102-0.556 0.102-1.177v-0.805c-0.626 0.096-1.269 0.143-1.925 0.138-0.707-0.006-1.401-0.073-2.075-0.195v0.862c0 0.621 0 0.932 0.101 1.177 0.135 0.327 0.395 0.586 0.722 0.722z"></path>
<path fill="#efab44" style="fill: var(--color2, #efab44)" opacity="0.5" d="M28 13.43c0.053 6.627-5.276 11.956-11.903 11.903s-12.043-5.469-12.096-12.096 5.276-11.956 11.903-11.903c6.627 0.053 12.043 5.469 12.096 12.096z"></path>
<path fill="#efab44" style="fill: var(--color2, #efab44)" d="M17.833 8.609c0.4 0.381 0.415 1.014 0.035 1.414l-2.2 2.31h3c0.4 0 0.762 0.238 0.919 0.606s0.081 0.794-0.195 1.084l-3.81 4c-0.381 0.4-1.014 0.415-1.414 0.034s-0.415-1.014-0.034-1.414l2.2-2.31h-3c-0.4 0-0.762-0.238-0.919-0.606s-0.081-0.794 0.195-1.084l3.81-4c0.381-0.4 1.014-0.415 1.414-0.034z"></path>
</symbol>
<symbol id="icon-book" viewBox="0 0 32 32">
<path fill="#efab44" style="fill: var(--color2, #efab44)" d="M19 5.973c-0.265 0.144-0.523 0.289-0.768 0.431-0.389 0.225-1.804 0.39-2.232 0.495v20.292c0.404-0.089 1.335-0.209 2.17-0.431 1.844-0.491 3.055-1.534 4.497-1.915 1.169-0.308 2.688-0.467 3.98-0.547 1.478-0.092 2.686-1.291 2.686-2.772v-14.947c0-1.43-1.128-2.604-2.557-2.554-0.144 0.005-0.292 0.011-0.442 0.018l0 6.008c0 0.148 0.001 0.36-0.028 0.541-0.035 0.222-0.149 0.65-0.592 0.911-0.427 0.251-0.845 0.158-1.044 0.096-0.173-0.054-0.363-0.144-0.505-0.212l-1.498-0.712-1.498 0.712c-0.142 0.067-0.331 0.158-0.505 0.212-0.199 0.062-0.616 0.155-1.044-0.096-0.444-0.26-0.558-0.689-0.592-0.911-0.028-0.181-0.028-0.393-0.028-0.541l0-4.077zM26.303 17.091c0.134 0.536-0.192 1.079-0.728 1.213l-5.333 1.333c-0.536 0.134-1.079-0.192-1.213-0.728s0.192-1.079 0.728-1.213l5.333-1.333c0.536-0.134 1.079 0.192 1.213 0.728z"></path>
<path fill="#efab44" style="fill: var(--color2, #efab44)" d="M24.333 4.201c-0.827 0.098-1.639 0.241-2.334 0.449-0.322 0.096-0.658 0.219-1 0.359v4.243l1.011-0.48c0.065-0.033 0.341-0.174 0.656-0.174 0.063 0 0.125 0.006 0.184 0.015 0.233 0.037 0.42 0.132 0.472 0.159l0.012 0.006 0.999 0.475v-5.050z"></path>
<path fill="#efab44" style="fill: var(--color2, #efab44)" opacity="0.5" d="M16 6.952c-0.446-0.085-1.41-0.215-2.29-0.451-1.792-0.481-2.977-1.482-4.376-1.851-1.182-0.312-2.722-0.47-4.023-0.55-1.461-0.090-2.643 1.1-2.643 2.564v14.861c0 1.481 1.208 2.68 2.686 2.772 1.293 0.081 2.811 0.239 3.98 0.547 0.648 0.171 1.622 0.575 2.497 0.968 1.339 0.601 2.736 1.062 4.169 1.378v-20.238z"></path>
<path fill="#efab44" style="fill: var(--color2, #efab44)" d="M5.697 17.091c0.134-0.536 0.677-0.862 1.213-0.728l5.333 1.333c0.536 0.134 0.862 0.677 0.728 1.213s-0.677 0.862-1.213 0.728l-5.333-1.333c-0.536-0.134-0.862-0.677-0.728-1.213z"></path>
<path fill="#efab44" style="fill: var(--color2, #efab44)" d="M6.909 11.030c-0.536-0.134-1.079 0.192-1.213 0.728s0.192 1.079 0.728 1.213l5.333 1.333c0.536 0.134 1.079-0.192 1.213-0.728s-0.192-1.079-0.728-1.213l-5.333-1.333z"></path>
</symbol>
<symbol id="icon-core" viewBox="0 0 32 32">
<path fill="#efab44" style="fill: var(--color2, #efab44)" d="M16 4c0.514 0 0.93 0.416 0.93 0.93v3.722c0.681 0.001 1.299 0.006 1.861 0.021l-0-0.022v-3.721c0-0.514 0.416-0.93 0.93-0.93s0.93 0.416 0.93 0.93v3.721c0 0.049-0.004 0.096-0.011 0.143 1.248 0.153 2.113 0.471 2.77 1.128s0.975 1.522 1.128 2.771c0.047-0.007 0.094-0.011 0.143-0.011h3.721c0.514 0 0.93 0.416 0.93 0.93s-0.416 0.93-0.93 0.93l-3.743-0c0.015 0.562 0.021 1.18 0.022 1.861h3.721c0.514 0 0.93 0.416 0.93 0.93s-0.416 0.93-0.93 0.93h-3.722c-0.001 0.681-0.006 1.299-0.021 1.861l0.022-0h3.721c0.514 0 0.93 0.416 0.93 0.93s-0.416 0.93-0.93 0.93h-3.721c-0.049 0-0.096-0.004-0.143-0.011-0.153 1.248-0.471 2.113-1.128 2.77s-1.522 0.975-2.771 1.128c0.007 0.047 0.011 0.094 0.011 0.143v3.721c0 0.514-0.416 0.93-0.93 0.93s-0.93-0.416-0.93-0.93v-3.721l0-0.022c-0.562 0.015-1.18 0.021-1.861 0.022v3.721c0 0.514-0.416 0.93-0.93 0.93s-0.93-0.416-0.93-0.93v-3.722c-0.681-0.001-1.299-0.006-1.861-0.021l0 0.022v3.721c0 0.514-0.416 0.93-0.93 0.93s-0.93-0.416-0.93-0.93v-3.721c0-0.049 0.004-0.096 0.011-0.143-1.248-0.153-2.113-0.471-2.771-1.128s-0.975-1.522-1.128-2.771c-0.047 0.007-0.094 0.011-0.143 0.011h-3.721c-0.514 0-0.93-0.416-0.93-0.93s0.416-0.93 0.93-0.93l3.743 0c-0.015-0.562-0.021-1.18-0.022-1.861h-3.721c-0.514 0-0.93-0.416-0.93-0.93s0.416-0.93 0.93-0.93h3.722c0.001-0.681 0.006-1.299 0.021-1.861l-0.022 0h-3.721c-0.514 0-0.93-0.416-0.93-0.93s0.416-0.93 0.93-0.93h3.721c0.049 0 0.096 0.004 0.143 0.011 0.153-1.248 0.471-2.113 1.128-2.771s1.522-0.975 2.771-1.128c-0.007-0.047-0.011-0.094-0.011-0.143v-3.721c0-0.514 0.416-0.93 0.93-0.93s0.93 0.416 0.93 0.93v3.721l-0 0.022c0.562-0.015 1.18-0.021 1.861-0.022v-3.721c0-0.514 0.416-0.93 0.93-0.93zM14.698 11.442c-0.825-0-1.535-0-2.104 0.076-0.61 0.082-1.194 0.267-1.668 0.741s-0.659 1.059-0.741 1.668c-0.076 0.569-0.076 1.28-0.076 2.104v2.603c-0 0.825-0 1.535 0.076 2.104 0.082 0.61 0.267 1.194 0.741 1.668s1.059 0.659 1.668 0.741c0.569 0.076 1.28 0.076 2.104 0.076h2.603c0.825 0 1.535 0 2.104-0.076 0.61-0.082 1.194-0.267 1.668-0.741s0.659-1.059 0.741-1.668c0.076-0.569 0.076-1.279 0.076-2.104v-2.603c0-0.825 0-1.535-0.076-2.104-0.082-0.61-0.267-1.194-0.741-1.668s-1.059-0.659-1.668-0.741c-0.569-0.076-1.279-0.076-2.104-0.076h-2.603z"></path>
<path fill="#efab44" style="fill: var(--color2, #efab44)" opacity="0.5" d="M12.242 13.575c0.071-0.071 0.197-0.158 0.601-0.213 0.43-0.058 1.014-0.060 1.917-0.060h2.481c0.903 0 1.487 0.002 1.918 0.060 0.404 0.054 0.53 0.142 0.601 0.213s0.158 0.197 0.213 0.601c0.058 0.43 0.060 1.014 0.060 1.917v2.481c0 0.903-0.002 1.487-0.060 1.917-0.054 0.404-0.142 0.53-0.213 0.601s-0.197 0.158-0.601 0.213c-0.43 0.058-1.014 0.060-1.918 0.060h-2.481c-0.903 0-1.487-0.002-1.917-0.060-0.403-0.054-0.53-0.142-0.601-0.213s-0.158-0.197-0.213-0.601c-0.058-0.43-0.060-1.014-0.060-1.917v-2.481c0-0.903 0.002-1.487 0.060-1.917 0.054-0.403 0.142-0.53 0.213-0.601z"></path>
</symbol>
<symbol id="icon-send" viewBox="0 0 32 32">
<path fill="" style="" d="M16 1.667c-0.552 0-1 0.448-1 1v14.63l-2.241-2.614c-0.359-0.419-0.991-0.468-1.41-0.108s-0.468 0.991-0.108 1.41l4 4.667c0.19 0.222 0.467 0.349 0.759 0.349s0.569-0.128 0.759-0.349l4-4.667c0.359-0.419 0.311-1.051-0.108-1.41s-1.051-0.311-1.41 0.108l-2.241 2.614v-14.63c0-0.552-0.448-1-1-1z"></path>
<path fill="" style="" d="M19 12v0.504c0.978-0.345 2.108-0.172 2.952 0.551 1.258 1.078 1.404 2.972 0.325 4.23l-4 4.667c-0.57 0.665-1.402 1.048-2.278 1.048s-1.708-0.383-2.278-1.048l-4-4.667c-1.078-1.258-0.933-3.152 0.325-4.23 0.844-0.723 1.974-0.896 2.952-0.551v-0.504h-2.333c-3.771 0-5.657 0-6.828 1.172s-1.172 3.057-1.172 6.828v1.333c0 3.771 0 5.657 1.172 6.828s3.057 1.172 6.828 1.172h10.667c3.771 0 5.657 0 6.828-1.172s1.172-3.057 1.172-6.828v-1.333c0-3.771 0-5.657-1.172-6.828s-3.057-1.172-6.828-1.172h-2.333z"></path>
</symbol>
<symbol id="icon-device" viewBox="0 0 32 32">
<path fill="#efab44" style="fill: var(--color2, #efab44)" d="M29.333 20c0-2.514 0-3.771-0.781-4.552s-2.038-0.781-4.552-0.781c-2.514 0-3.771 0-4.552 0.781s-0.781 2.038-0.781 4.552v4c0 2.514 0 3.771 0.781 4.552s2.038 0.781 4.552 0.781c2.514 0 3.771 0 4.552-0.781s0.781-2.038 0.781-4.552v-4zM21.666 26.666c0-0.552 0.448-1 1-1h2.667c0.552 0 1 0.448 1 1s-0.448 1-1 1h-2.667c-0.552 0-1-0.448-1-1z"></path>
<path fill="#efab44" style="fill: var(--color2, #efab44)" d="M10.667 22.667c-3.771 0-5.657 0-6.828-1.172-0.759-0.759-1.077-1.818-1.171-3.495v-0.667h14.022v0.667c-0.022 0.582-0.022 1.215-0.022 1.881v4.239c-0 1.154-0 2.212 0.115 3.073 0.127 0.948 0.427 1.95 1.251 2.774l0.034 0.034h-7.401c-0.552 0-1-0.448-1-1s0.448-1 1-1h4.333v-5.333h-4.333z"></path>
<path fill="#efab44" style="fill: var(--color2, #efab44)" opacity="0.5" d="M13.334 2.667h5.333c5.028 0 7.542 0 9.105 1.562s1.562 4.076 1.562 9.105v0.184c-0.678-0.445-1.425-0.639-2.141-0.736-0.861-0.116-1.919-0.116-3.073-0.115h-0.239c-1.154-0-2.212-0-3.073 0.115-0.948 0.127-1.95 0.427-2.774 1.251-0.783 0.783-1.093 1.727-1.231 2.633v0.667h-14.136l0-0.667c-0.009-0.601-0-1.264-0-2v-1.333c0-5.028 0-7.542 1.562-9.105s4.076-1.562 9.105-1.562z"></path>
</symbol>
<symbol id="icon-arrow-left" viewBox="0 0 32 32">
<path fill="" style="" d="M27.38 4.619c-1.953-1.953-5.095-1.953-11.381-1.953s-9.428 0-11.381 1.953c-1.953 1.953-1.953 5.095-1.953 11.381s0 9.428 1.953 11.381c1.953 1.953 5.095 1.953 11.381 1.953s9.428 0 11.381-1.953c1.953-1.953 1.953-5.095 1.953-11.381s0-9.428-1.953-11.381zM18.707 11.293c0.391 0.391 0.391 1.024 0 1.414l-3.293 3.293 3.293 3.293c0.391 0.391 0.391 1.024 0 1.414s-1.024 0.391-1.414 0l-4-4c-0.188-0.188-0.293-0.442-0.293-0.707s0.105-0.52 0.293-0.707l4-4c0.391-0.391 1.024-0.391 1.414 0z"></path>
</symbol>
<symbol id="icon-arrow-right" viewBox="0 0 32 32">
<path fill="" style="" d="M4.62 4.619c1.953-1.953 5.095-1.953 11.381-1.953s9.428 0 11.381 1.953c1.953 1.953 1.953 5.095 1.953 11.381s0 9.428-1.953 11.381c-1.953 1.953-5.095 1.953-11.381 1.953s-9.428 0-11.381-1.953c-1.953-1.953-1.953-5.095-1.953-11.381s0-9.428 1.953-11.381zM13.293 11.293c-0.391 0.391-0.391 1.024 0 1.414l3.293 3.293-3.293 3.293c-0.391 0.391-0.391 1.024 0 1.414s1.024 0.391 1.414 0l4-4c0.188-0.188 0.293-0.442 0.293-0.707s-0.105-0.52-0.293-0.707l-4-4c-0.391-0.391-1.024-0.391-1.414 0z"></path>
</symbol>
<symbol id="icon-geo" viewBox="0 0 32 32">
<path d="M16 2.667c5.891 0 10.667 5.337 10.667 11.333 0 5.95-3.404 12.417-8.716 14.899-1.238 0.579-2.663 0.579-3.901 0-5.312-2.483-8.716-8.95-8.716-14.899 0-5.997 4.776-11.333 10.667-11.333zM16 16c1.473 0 2.667-1.194 2.667-2.667s-1.194-2.667-2.667-2.667-2.667 1.194-2.667 2.667c0 1.473 1.194 2.667 2.667 2.667z"></path>
</symbol>
<symbol id="icon-tringle" viewBox="0 0 32 32">
<path fill="#efab44" style="fill: var(--color2, #efab44)" d="M28.54 11.793c3.372 1.834 3.372 6.58 0 8.414l-20.359 11.071c-3.277 1.782-7.304-0.537-7.304-4.207v-22.142c0-3.669 4.027-5.989 7.304-4.207l20.359 11.071z"></path>
</symbol>
<symbol id="icon-arrow-mini-top" viewBox="0 0 32 32">
<path fill="" style="" d="M16 29.333c7.364 0 13.333-5.97 13.333-13.333s-5.97-13.333-13.333-13.333c-7.364 0-13.333 5.97-13.333 13.333s5.97 13.333 13.333 13.333zM13 12c0-0.552 0.448-1 1-1h6c0.552 0 1 0.448 1 1v6c0 0.552-0.448 1-1 1s-1-0.448-1-1v-3.586l-6.293 6.293c-0.391 0.391-1.024 0.391-1.414 0s-0.391-1.024 0-1.414l6.293-6.293h-3.586c-0.552 0-1-0.448-1-1z"></path>
</symbol>
<symbol id="icon-certificate" viewBox="0 0 32 32">
<path fill="#efab44" style="fill: var(--color2, #efab44)" opacity="0.5" d="M2.667 10.667v5.333c0 3.771 0 5.657 1.172 6.828 0.635 0.635 1.48 0.926 2.722 1.059 0.099-0.133 0.192-0.238 0.259-0.311 0.155-0.17 0.351-0.364 0.542-0.552l1.991-1.963 0.735-0.745c0.483-2.83 2.947-4.984 5.914-4.984s5.431 2.154 5.914 4.984l0.735 0.745 1.991 1.963c0.19 0.188 0.387 0.381 0.542 0.552 0.067 0.073 0.16 0.178 0.259 0.311 1.241-0.133 2.086-0.424 2.721-1.059 1.172-1.172 1.172-3.057 1.172-6.828v-5.333c0-3.771 0-5.657-1.172-6.828s-3.057-1.172-6.828-1.172h-10.667c-3.771 0-5.657 0-6.828 1.172s-1.172 3.057-1.172 6.828z"></path>
<path fill="#efab44" style="fill: var(--color2, #efab44)" d="M9.333 11.667c-0.552 0-1 0.448-1 1s0.448 1 1 1h13.333c0.552 0 1-0.448 1-1s-0.448-1-1-1h-13.333z"></path>
<path fill="#efab44" style="fill: var(--color2, #efab44)" d="M11 8c0-0.552 0.448-1 1-1h8c0.552 0 1 0.448 1 1s-0.448 1-1 1h-8c-0.552 0-1-0.448-1-1z"></path>
<path fill="#efab44" style="fill: var(--color2, #efab44)" d="M12.002 21.223c-0.001 0.037-0.002 0.073-0.002 0.11 0 2.209 1.791 4 4 4s4-1.791 4-4c0-0.037-0-0.074-0.002-0.11-0.058-2.158-1.826-3.89-3.998-3.89-2.071 0-3.774 1.574-3.979 3.591-0.010 0.099-0.016 0.198-0.019 0.299z"></path>
<path fill="#efab44" style="fill: var(--color2, #efab44)" d="M10.234 22.999l-1.441 1.421c-0.432 0.426-0.648 0.639-0.723 0.82-0.17 0.411-0.025 0.867 0.346 1.083 0.163 0.095 0.456 0.124 1.044 0.184 0.332 0.033 0.497 0.050 0.636 0.101 0.311 0.113 0.553 0.352 0.668 0.658 0.051 0.137 0.068 0.3 0.102 0.627 0.060 0.579 0.090 0.869 0.186 1.029 0.219 0.366 0.682 0.51 1.099 0.342 0.183-0.074 0.399-0.287 0.831-0.713l1.441-1.427c-2.017-0.548-3.611-2.121-4.189-4.125z"></path>
<path fill="#efab44" style="fill: var(--color2, #efab44)" d="M17.577 27.124l1.441 1.427c0.432 0.426 0.648 0.639 0.831 0.713 0.417 0.168 0.879 0.024 1.099-0.342 0.096-0.161 0.126-0.45 0.186-1.029 0.034-0.327 0.051-0.49 0.102-0.627 0.115-0.307 0.357-0.545 0.668-0.658 0.139-0.051 0.305-0.067 0.636-0.101 0.587-0.059 0.881-0.089 1.044-0.184 0.371-0.216 0.517-0.672 0.346-1.083-0.075-0.18-0.291-0.393-0.723-0.82l-1.441-1.421c-0.578 2.004-2.172 3.577-4.189 4.125z"></path>
</symbol>
<symbol id="icon-droplets" viewBox="0 0 32 32">
<path fill="#efab44" style="fill: var(--color2, #efab44)" d="M18.956 4.666c-1.895-0.888-4.018-0.888-5.913 0l-8.921 4.183c-1.435 0.673-1.809 2.569-1.122 3.88v6.604c0 0.552 0.448 1 1 1s1-0.448 1-1v-5.104l8.044 3.771c1.895 0.888 4.018 0.888 5.913 0l8.922-4.183c1.941-0.91 1.941-4.059 0-4.969l-8.922-4.183z"></path>
<path fill="#efab44" style="fill: var(--color2, #efab44)" opacity="0.5" d="M6.667 15.011l6.377 2.99c1.895 0.888 4.018 0.888 5.913 0l6.377-2.99v7.156c0 1.344-0.671 2.602-1.847 3.253-1.958 1.084-5.092 2.579-7.486 2.579s-5.528-1.495-7.486-2.579c-1.176-0.651-1.847-1.909-1.847-3.253v-7.156z"></path>
</symbol>
<symbol id="icon-laptop" viewBox="0 0 32 32">
<path fill="#efab44" style="fill: var(--color2, #efab44)" d="M1.333 26.987c0-0.56 0.458-1.013 1.023-1.013h27.287c0.565 0 1.023 0.454 1.023 1.013s-0.458 1.013-1.023 1.013h-27.287c-0.565 0-1.023-0.454-1.023-1.013z"></path>
<path fill="#efab44" style="fill: var(--color2, #efab44)" opacity="0.5" d="M4.92 5.187c-1.199 1.187-1.199 3.098-1.199 6.919v6.756c0 2.548 0 3.822 0.799 4.613s2.085 0.791 4.658 0.791h13.643c2.573 0 3.859 0 4.658-0.791s0.799-2.065 0.799-4.613v-6.756c0-3.822 0-5.732-1.199-6.919s-3.128-1.187-6.987-1.187h-8.186c-3.859 0-5.788 0-6.987 1.187z"></path>
<path fill="#efab44" style="fill: var(--color2, #efab44)" d="M11.907 19.201c-0.565 0-1.023 0.454-1.023 1.013s0.458 1.013 1.023 1.013h8.186c0.565 0 1.023-0.454 1.023-1.013s-0.458-1.013-1.023-1.013h-8.186z"></path>
</symbol>
<symbol id="icon-arrow-down" viewBox="0 0 32 32">
<path fill="" style="fill: var(#084184)" d="M4.619 4.619c-1.953 1.953-1.953 5.095-1.953 11.381s0 9.428 1.953 11.381c1.953 1.953 5.095 1.953 11.381 1.953s9.428 0 11.381-1.953c1.953-1.953 1.953-5.095 1.953-11.381s0-9.428-1.953-11.381c-1.953-1.953-5.095-1.953-11.381-1.953s-9.428 0-11.381 1.953zM16 9.667c0.552 0 1 0.448 1 1v8.252l2.293-2.293c0.391-0.39 1.024-0.39 1.414 0s0.39 1.024 0 1.414l-4 4c-0.188 0.188-0.442 0.293-0.707 0.293s-0.52-0.105-0.707-0.293l-4-4c-0.39-0.391-0.39-1.024 0-1.414s1.024-0.39 1.414 0l2.293 2.293v-8.252c0-0.552 0.448-1 1-1z"></path>
</symbol>
<symbol id="icon-telegram" viewBox="0 0 32 32">
<path d="M29.251 6.163l-4.225 19.925c-0.319 1.406-1.15 1.756-2.331 1.094l-6.438-4.744-3.106 2.988c-0.344 0.344-0.631 0.631-1.294 0.631l0.463-6.556 11.931-10.781c0.519-0.462-0.113-0.719-0.806-0.256l-14.75 9.288-6.35-1.988c-1.381-0.431-1.406-1.381 0.288-2.044l24.837-9.569c1.15-0.431 2.156 0.255 1.781 2.012z"></path>
</symbol>
<symbol id="icon-facebook" viewBox="0 0 32 32">
<path d="M12.417 28.16h5.12v-10.253h4.613l0.507-5.094h-5.12v-2.573c0-0.339 0.135-0.665 0.375-0.905s0.566-0.375 0.905-0.375h3.84v-5.12h-3.84c-1.697 0-3.325 0.674-4.525 1.875s-1.875 2.828-1.875 4.525v2.573h-2.56l-0.507 5.094h3.067v10.253z"></path>
</symbol>
<symbol id="icon-mail" viewBox="0 0 32 32">
<path d="M4.7 7.26c-1.5 1.5-1.5 3.913-1.5 8.74s0 7.241 1.5 8.74c1.5 1.5 3.913 1.5 8.74 1.5h5.12c4.827 0 7.241 0 8.74-1.5s1.5-3.913 1.5-8.74c0-4.827 0-7.241-1.5-8.74s-3.913-1.5-8.74-1.5h-5.12c-4.827 0-7.241 0-8.74 1.5zM24.418 10.265c0.339 0.407 0.284 1.013-0.123 1.352l-2.811 2.343c-1.135 0.945-2.054 1.712-2.866 2.234-0.845 0.544-1.669 0.887-2.617 0.887s-1.772-0.344-2.617-0.887c-0.812-0.522-1.731-1.288-2.866-2.234l-2.812-2.343c-0.407-0.339-0.462-0.945-0.123-1.352s0.945-0.462 1.352-0.123l2.763 2.303c1.194 0.995 2.023 1.684 2.723 2.134 0.678 0.436 1.137 0.582 1.579 0.582s0.901-0.146 1.579-0.582c0.7-0.45 1.529-1.139 2.723-2.134l2.763-2.303c0.407-0.339 1.013-0.284 1.352 0.123z"></path>
</symbol>
<symbol id="icon-phone" viewBox="0 0 32 32">
<path d="M20.552 19.261l-0.583 0.614c0 0-1.386 1.459-5.168-2.523s-2.397-5.441-2.397-5.441l0.367-0.386c0.904-0.952 0.99-2.481 0.201-3.597l-1.614-2.283c-0.977-1.381-2.864-1.564-3.983-0.385l-2.009 2.115c-0.555 0.584-0.927 1.342-0.882 2.182 0.115 2.15 1.034 6.775 6.16 12.172 5.436 5.723 10.536 5.95 12.622 5.744 0.66-0.065 1.233-0.421 1.696-0.908l1.818-1.914c1.227-1.292 0.881-3.507-0.689-4.411l-2.445-1.408c-1.031-0.594-2.287-0.419-3.093 0.429z"></path>
<path d="M17.612 3.046c0.085-0.523 0.579-0.878 1.103-0.794 0.032 0.006 0.137 0.026 0.191 0.038 0.109 0.024 0.262 0.062 0.452 0.117 0.38 0.111 0.911 0.293 1.548 0.585 1.275 0.585 2.972 1.607 4.733 3.368s2.784 3.458 3.368 4.733c0.292 0.637 0.474 1.168 0.585 1.548 0.055 0.19 0.093 0.342 0.117 0.452 0.012 0.055 0.021 0.098 0.027 0.131l0.007 0.040c0.085 0.523-0.267 1.039-0.791 1.123-0.522 0.084-1.014-0.269-1.1-0.79-0.003-0.014-0.010-0.052-0.018-0.087-0.016-0.071-0.043-0.183-0.086-0.332-0.087-0.297-0.237-0.739-0.487-1.284-0.499-1.088-1.396-2.591-2.981-4.176s-3.087-2.482-4.176-2.981c-0.545-0.25-0.987-0.4-1.284-0.487-0.149-0.043-0.335-0.086-0.406-0.102-0.521-0.087-0.887-0.581-0.802-1.103z"></path>
<path d="M17.902 7.462c0.146-0.51 0.677-0.805 1.187-0.659l-0.264 0.923c0.264-0.923 0.264-0.923 0.264-0.923l0.002 0.001 0.006 0.002 0.010 0.003 0.025 0.008c0.019 0.006 0.043 0.014 0.072 0.024 0.057 0.020 0.134 0.049 0.227 0.089 0.186 0.080 0.441 0.203 0.754 0.389 0.626 0.371 1.482 0.987 2.487 1.991s1.621 1.86 1.991 2.487c0.185 0.313 0.309 0.568 0.389 0.754 0.040 0.093 0.069 0.169 0.089 0.227 0.010 0.029 0.018 0.053 0.024 0.072l0.008 0.025 0.003 0.010 0.001 0.004 0 0.002c0 0 0.001 0.002-0.922 0.266l0.923-0.264c0.146 0.51-0.15 1.041-0.659 1.187-0.505 0.144-1.032-0.145-1.183-0.646l-0.005-0.014c-0.007-0.019-0.021-0.057-0.045-0.112-0.047-0.111-0.133-0.291-0.276-0.533-0.285-0.482-0.801-1.211-1.697-2.107s-1.625-1.411-2.107-1.697c-0.241-0.143-0.422-0.229-0.533-0.276-0.055-0.024-0.093-0.038-0.112-0.045l-0.014-0.005c-0.502-0.151-0.791-0.678-0.646-1.183z"></path>
</symbol>
</defs>
</svg>
